# Blender v2.79 (sub 0) OBJ File: 'LowpolyArena.blend'
# www.blender.org
mtllib LowpolyArena.mtl
o Cube
v 2.088287 -1.000000 -7.934098
v 2.088287 -1.000000 -5.934098
v 2.088288 1.000000 -7.934097
v 2.088287 1.000000 -5.934098
v 4.401500 -1.000000 -6.147000
v 4.401500 -1.000000 -4.147000
v 4.401500 1.000000 -6.146999
v 4.401499 1.000000 -4.147000
v 6.842956 -1.000000 -3.905988
v 6.842956 -1.000000 -1.905988
v 6.842956 1.000000 -3.905987
v 6.842955 1.000000 -1.905987
v 5.555069 -1.000000 -3.088139
v 5.555069 1.000000 -3.088138
v 5.555069 -1.000000 -5.088139
v 5.555070 1.000000 -5.088138
v -2.088287 -1.000000 -7.934098
v -2.088287 -1.000000 -5.934098
v 0.000000 -1.000000 -5.934098
v 0.000000 -1.000000 -7.934098
v -2.088288 1.000000 -7.934097
v -2.088287 1.000000 -5.934098
v 0.000000 1.000000 -5.934099
v 0.000000 1.000000 -7.934098
v -4.401500 -1.000000 -6.147000
v -4.401500 -1.000000 -4.147000
v -4.401500 1.000000 -6.146999
v -4.401499 1.000000 -4.147000
v -6.842956 -1.000000 -3.905988
v -6.842956 -1.000000 -1.905988
v -6.842956 1.000000 -3.905987
v -6.842955 1.000000 -1.905987
v -5.555069 -1.000000 -3.088139
v -5.555069 1.000000 -3.088138
v -5.555069 -1.000000 -5.088139
v -5.555070 1.000000 -5.088138
v 2.088287 -1.000000 7.934098
v 2.088287 -1.000000 5.934098
v 2.088288 1.000000 7.934097
v 2.088287 1.000000 5.934098
v 4.401500 -1.000000 6.147000
v 4.401500 -1.000000 4.147000
v 4.401500 1.000000 6.146999
v 4.401499 1.000000 4.147000
v 6.842956 -1.000000 3.905988
v 6.842956 -1.000000 1.905988
v 6.842956 1.000000 3.905987
v 6.842955 1.000000 1.905987
v 5.555069 -1.000000 3.088139
v 5.555069 1.000000 3.088138
v 5.555069 -1.000000 5.088139
v 5.555070 1.000000 5.088138
v 6.842956 -1.000000 0.000000
v 6.842955 1.000000 0.000000
v 5.555069 -1.000000 0.000000
v 5.555069 1.000000 0.000000
v -2.088287 -1.000000 7.934098
v -2.088287 -1.000000 5.934098
v 0.000000 -1.000000 5.934098
v 0.000000 -1.000000 7.934098
v -2.088288 1.000000 7.934097
v -2.088287 1.000000 5.934098
v 0.000000 1.000000 5.934099
v 0.000000 1.000000 7.934098
v -4.401500 -1.000000 6.147000
v -4.401500 -1.000000 4.147000
v -4.401500 1.000000 6.146999
v -4.401499 1.000000 4.147000
v -6.842956 -1.000000 3.905988
v -6.842956 -1.000000 1.905988
v -6.842956 1.000000 3.905987
v -6.842955 1.000000 1.905987
v -5.555069 -1.000000 3.088139
v -5.555069 1.000000 3.088138
v -5.555069 -1.000000 5.088139
v -5.555070 1.000000 5.088138
v -6.842956 -1.000000 0.000000
v -6.842955 1.000000 0.000000
v -5.555069 -1.000000 0.000000
v -5.555069 1.000000 0.000000
vn 0.0000 -1.0000 0.0000
vn 0.0000 1.0000 0.0000
vn 0.0000 -0.0000 1.0000
vn 0.0000 0.0000 -1.0000
vn -0.6114 -0.0000 0.7913
vn 0.6114 0.0000 -0.7913
vn 1.0000 -0.0000 0.0000
vn 0.6762 0.0000 -0.7367
vn -0.6762 -0.0000 0.7367
vn -1.0000 -0.0000 0.0000
vn 0.6114 -0.0000 0.7913
vn -0.6114 0.0000 -0.7913
vn -0.6762 0.0000 -0.7367
vn 0.6762 -0.0000 0.7367
usemtl Material
s off
f 1//1 2//1 19//1 20//1
f 3//2 24//2 23//2 4//2
f 3//2 4//2 8//2 7//2
f 2//3 4//3 23//3 19//3
f 3//4 1//4 20//4 24//4
f 12//2 14//2 56//2 54//2
f 4//5 2//5 6//5 8//5
f 1//6 3//6 7//6 5//6
f 2//1 1//1 5//1 6//1
f 9//7 11//7 12//7 10//7
f 13//1 15//1 9//1 10//1
f 16//2 14//2 12//2 11//2
f 15//8 16//8 11//8 9//8
f 5//8 7//8 16//8 15//8
f 7//2 8//2 14//2 16//2
f 6//1 5//1 15//1 13//1
f 8//9 6//9 13//9 14//9
f 13//1 10//1 53//1 55//1
f 14//10 13//10 55//10 56//10
f 10//7 12//7 54//7 53//7
f 17//1 20//1 19//1 18//1
f 21//2 22//2 23//2 24//2
f 21//2 27//2 28//2 22//2
f 18//3 19//3 23//3 22//3
f 19//7 20//7 24//7 23//7
f 21//4 24//4 20//4 17//4
f 32//2 78//2 80//2 34//2
f 22//11 28//11 26//11 18//11
f 17//12 25//12 27//12 21//12
f 18//1 26//1 25//1 17//1
f 29//10 30//10 32//10 31//10
f 33//1 30//1 29//1 35//1
f 36//2 31//2 32//2 34//2
f 35//13 29//13 31//13 36//13
f 25//13 35//13 36//13 27//13
f 27//2 36//2 34//2 28//2
f 26//1 33//1 35//1 25//1
f 28//14 34//14 33//14 26//14
f 33//1 79//1 77//1 30//1
f 34//7 80//7 79//7 33//7
f 30//10 77//10 78//10 32//10
f 37//1 60//1 59//1 38//1
f 39//2 40//2 63//2 64//2
f 39//2 43//2 44//2 40//2
f 38//4 59//4 63//4 40//4
f 39//3 64//3 60//3 37//3
f 48//2 54//2 56//2 50//2
f 40//12 44//12 42//12 38//12
f 37//11 41//11 43//11 39//11
f 38//1 42//1 41//1 37//1
f 45//7 46//7 48//7 47//7
f 49//1 46//1 45//1 51//1
f 52//2 47//2 48//2 50//2
f 51//14 45//14 47//14 52//14
f 41//14 51//14 52//14 43//14
f 43//2 52//2 50//2 44//2
f 42//1 49//1 51//1 41//1
f 44//13 50//13 49//13 42//13
f 56//4 54//4 53//4 55//4
f 49//1 55//1 53//1 46//1
f 50//10 56//10 55//10 49//10
f 46//7 53//7 54//7 48//7
f 57//1 58//1 59//1 60//1
f 61//2 64//2 63//2 62//2
f 61//2 62//2 68//2 67//2
f 58//4 62//4 63//4 59//4
f 59//7 63//7 64//7 60//7
f 61//3 57//3 60//3 64//3
f 72//2 74//2 80//2 78//2
f 62//6 58//6 66//6 68//6
f 57//5 61//5 67//5 65//5
f 58//1 57//1 65//1 66//1
f 69//10 71//10 72//10 70//10
f 73//1 75//1 69//1 70//1
f 76//2 74//2 72//2 71//2
f 75//9 76//9 71//9 69//9
f 65//9 67//9 76//9 75//9
f 67//2 68//2 74//2 76//2
f 66//1 65//1 75//1 73//1
f 68//8 66//8 73//8 74//8
f 80//4 79//4 77//4 78//4
f 73//1 70//1 77//1 79//1
f 74//7 73//7 79//7 80//7
f 70//10 72//10 78//10 77//10
